<svg xmlns="http://www.w3.org/2000/svg" viewBox="0 0 200 200">
  <defs>
    <style>
      .cls-1 {
        fill: #ff9696;
      }
    </style>
  </defs>
  <g id="Group_7" data-name="Group 7" transform="translate(-600 -231)">
    <rect id="Rectangle_2" data-name="Rectangle 2" class="cls-1" width="28.571" height="28.571" transform="translate(685.714 402.429)"/>
    <rect id="Rectangle_3" data-name="Rectangle 3" class="cls-1" width="28.571" height="28.571" transform="translate(714.286 373.857)"/>
    <rect id="Rectangle_4" data-name="Rectangle 4" class="cls-1" width="28.571" height="28.571" transform="translate(657.143 373.857)"/>
    <rect id="Rectangle_5" data-name="Rectangle 5" class="cls-1" width="28.571" height="28.571" transform="translate(742.857 345.286)"/>
    <rect id="Rectangle_6" data-name="Rectangle 6" class="cls-1" width="28.571" height="28.571" transform="translate(628.571 345.286)"/>
    <rect id="Rectangle_7" data-name="Rectangle 7" class="cls-1" width="28.571" height="28.571" transform="translate(771.429 316.714)"/>
    <rect id="Rectangle_8" data-name="Rectangle 8" class="cls-1" width="28.571" height="28.571" transform="translate(600 316.714)"/>
    <rect id="Rectangle_9" data-name="Rectangle 9" class="cls-1" width="28.571" height="28.571" transform="translate(771.429 288.143)"/>
    <rect id="Rectangle_10" data-name="Rectangle 10" class="cls-1" width="28.571" height="28.571" transform="translate(600 288.143)"/>
    <rect id="Rectangle_11" data-name="Rectangle 11" class="cls-1" width="28.571" height="28.571" transform="translate(685.714 259.571)"/>
    <rect id="Rectangle_12" data-name="Rectangle 12" class="cls-1" width="28.571" height="28.571" transform="translate(714.286 231)"/>
    <rect id="Rectangle_13" data-name="Rectangle 13" class="cls-1" width="28.571" height="28.571" transform="translate(657.143 231)"/>
    <rect id="Rectangle_14" data-name="Rectangle 14" class="cls-1" width="28.571" height="28.571" transform="translate(742.857 231)"/>
    <rect id="Rectangle_15" data-name="Rectangle 15" class="cls-1" width="28.571" height="28.571" transform="translate(771.429 259.571)"/>
    <rect id="Rectangle_16" data-name="Rectangle 16" class="cls-1" width="28.571" height="28.571" transform="translate(600 259.571)"/>
    <rect id="Rectangle_17" data-name="Rectangle 17" class="cls-1" width="28.571" height="28.571" transform="translate(628.571 231)"/>
    <rect id="Rectangle_18" data-name="Rectangle 18" class="cls-1" width="28.571" height="28.571" transform="translate(628.571 259.571)"/>
    <rect id="Rectangle_19" data-name="Rectangle 19" class="cls-1" width="28.571" height="28.571" transform="translate(657.143 345.286)"/>
    <rect id="Rectangle_20" data-name="Rectangle 20" class="cls-1" width="28.571" height="28.571" transform="translate(685.714 373.857)"/>
    <rect id="Rectangle_23" data-name="Rectangle 23" class="cls-1" width="28.571" height="28.571" transform="translate(628.571 316.714)"/>
    <rect id="Rectangle_27" data-name="Rectangle 27" class="cls-1" width="28.571" height="28.571" transform="translate(742.857 316.714)"/>
    <rect id="Rectangle_28" data-name="Rectangle 28" class="cls-1" width="28.571" height="28.571" transform="translate(657.143 316.714)"/>
    <rect id="Rectangle_29" data-name="Rectangle 29" class="cls-1" width="28.571" height="28.571" transform="translate(685.714 316.714)"/>
    <rect id="Rectangle_30" data-name="Rectangle 30" class="cls-1" width="28.571" height="28.571" transform="translate(714.286 316.714)"/>
    <rect id="Rectangle_31" data-name="Rectangle 31" class="cls-1" width="28.571" height="28.571" transform="translate(628.571 288.143)"/>
    <rect id="Rectangle_32" data-name="Rectangle 32" class="cls-1" width="28.571" height="28.571" transform="translate(657.143 288.143)"/>
    <rect id="Rectangle_33" data-name="Rectangle 33" class="cls-1" width="28.571" height="28.571" transform="translate(685.714 288.143)"/>
    <rect id="Rectangle_34" data-name="Rectangle 34" class="cls-1" width="28.571" height="28.571" transform="translate(714.286 288.143)"/>
    <rect id="Rectangle_35" data-name="Rectangle 35" class="cls-1" width="28.571" height="28.571" transform="translate(742.857 288.143)"/>
    <rect id="Rectangle_36" data-name="Rectangle 36" class="cls-1" width="28.571" height="28.571" transform="translate(657.143 259.571)"/>
    <rect id="Rectangle_37" data-name="Rectangle 37" class="cls-1" width="28.571" height="28.571" transform="translate(714.286 259.571)"/>
    <rect id="Rectangle_38" data-name="Rectangle 38" class="cls-1" width="28.571" height="28.571" transform="translate(742.857 259.571)"/>
    <rect id="Rectangle_39" data-name="Rectangle 39" class="cls-1" width="28.571" height="28.571" transform="translate(685.714 345.286)"/>
    <rect id="Rectangle_40" data-name="Rectangle 40" class="cls-1" width="28.571" height="28.571" transform="translate(714.286 345.286)"/>
  </g>
</svg>
